<mxfile host="app.diagrams.net" modified="2021-06-21T15:24:05.400Z" agent="5.0 (Windows)" etag="Ml2msIomRURTlB6l-1Ob" version="14.8.0" type="github">
  <diagram id="s_3pCIxAKFfTdRZwG-cy" name="Page-1">
    <mxGraphModel dx="868" dy="440" grid="1" gridSize="10" guides="1" tooltips="1" connect="1" arrows="1" fold="1" page="1" pageScale="1" pageWidth="827" pageHeight="1169" math="0" shadow="0">
      <root>
        <mxCell id="0" />
        <mxCell id="1" parent="0" />
        <mxCell id="ULExNU8f8YkQf40PmKOp-6" value="" style="ellipse;whiteSpace=wrap;html=1;aspect=fixed;" vertex="1" parent="1">
          <mxGeometry x="230" y="45" width="280" height="280" as="geometry" />
        </mxCell>
        <mxCell id="ULExNU8f8YkQf40PmKOp-4" style="edgeStyle=orthogonalEdgeStyle;rounded=0;orthogonalLoop=1;jettySize=auto;html=1;entryX=0;entryY=0.5;entryDx=0;entryDy=0;" edge="1" parent="1" source="ULExNU8f8YkQf40PmKOp-1" target="ULExNU8f8YkQf40PmKOp-3">
          <mxGeometry relative="1" as="geometry" />
        </mxCell>
        <mxCell id="ULExNU8f8YkQf40PmKOp-1" value="PC 1" style="rounded=0;whiteSpace=wrap;html=1;" vertex="1" parent="1">
          <mxGeometry x="280" y="130" width="50" height="40" as="geometry" />
        </mxCell>
        <mxCell id="ULExNU8f8YkQf40PmKOp-5" style="edgeStyle=orthogonalEdgeStyle;rounded=0;orthogonalLoop=1;jettySize=auto;html=1;entryX=0;entryY=0.5;entryDx=0;entryDy=0;" edge="1" parent="1" source="ULExNU8f8YkQf40PmKOp-2" target="ULExNU8f8YkQf40PmKOp-3">
          <mxGeometry relative="1" as="geometry" />
        </mxCell>
        <mxCell id="ULExNU8f8YkQf40PmKOp-2" value="PC 2" style="rounded=0;whiteSpace=wrap;html=1;" vertex="1" parent="1">
          <mxGeometry x="280" y="200" width="50" height="40" as="geometry" />
        </mxCell>
        <mxCell id="ULExNU8f8YkQf40PmKOp-14" style="edgeStyle=orthogonalEdgeStyle;rounded=0;orthogonalLoop=1;jettySize=auto;html=1;entryX=0;entryY=0.5;entryDx=0;entryDy=0;" edge="1" parent="1" source="ULExNU8f8YkQf40PmKOp-3" target="ULExNU8f8YkQf40PmKOp-11">
          <mxGeometry relative="1" as="geometry" />
        </mxCell>
        <mxCell id="ULExNU8f8YkQf40PmKOp-3" value="Routeur" style="rounded=0;whiteSpace=wrap;html=1;" vertex="1" parent="1">
          <mxGeometry x="400" y="160" width="80" height="50" as="geometry" />
        </mxCell>
        <mxCell id="ULExNU8f8YkQf40PmKOp-9" value="&lt;div&gt;&lt;span class=&quot;ILfuVd&quot;&gt;&lt;span class=&quot;hgKElc&quot;&gt;&lt;b&gt;LAN&lt;/b&gt; &lt;br&gt;&lt;/span&gt;&lt;/span&gt;&lt;/div&gt;&lt;div&gt;&lt;span class=&quot;ILfuVd&quot;&gt;&lt;span class=&quot;hgKElc&quot;&gt;(&lt;b&gt;Local Area Network&lt;/b&gt;, ou rÃ©seau local)&lt;/span&gt;&lt;/span&gt;&lt;/div&gt;" style="text;html=1;strokeColor=none;fillColor=none;align=center;verticalAlign=middle;whiteSpace=wrap;rounded=0;" vertex="1" parent="1">
          <mxGeometry x="303.13" y="55" width="133.75" height="75" as="geometry" />
        </mxCell>
        <mxCell id="ULExNU8f8YkQf40PmKOp-19" style="edgeStyle=orthogonalEdgeStyle;rounded=0;orthogonalLoop=1;jettySize=auto;html=1;entryX=0;entryY=0.5;entryDx=0;entryDy=0;" edge="1" parent="1" source="ULExNU8f8YkQf40PmKOp-11" target="ULExNU8f8YkQf40PmKOp-13">
          <mxGeometry relative="1" as="geometry">
            <mxPoint x="840" y="220" as="targetPoint" />
            <Array as="points">
              <mxPoint x="720" y="240" />
            </Array>
          </mxGeometry>
        </mxCell>
        <mxCell id="ULExNU8f8YkQf40PmKOp-21" style="edgeStyle=orthogonalEdgeStyle;rounded=0;orthogonalLoop=1;jettySize=auto;html=1;entryX=0;entryY=0.5;entryDx=0;entryDy=0;" edge="1" parent="1" source="ULExNU8f8YkQf40PmKOp-11" target="ULExNU8f8YkQf40PmKOp-12">
          <mxGeometry relative="1" as="geometry">
            <Array as="points">
              <mxPoint x="710" y="115" />
            </Array>
          </mxGeometry>
        </mxCell>
        <mxCell id="ULExNU8f8YkQf40PmKOp-11" value="Routeur" style="rounded=0;whiteSpace=wrap;html=1;" vertex="1" parent="1">
          <mxGeometry x="670" y="160" width="80" height="50" as="geometry" />
        </mxCell>
        <mxCell id="ULExNU8f8YkQf40PmKOp-22" style="edgeStyle=orthogonalEdgeStyle;rounded=0;orthogonalLoop=1;jettySize=auto;html=1;entryX=0.5;entryY=0;entryDx=0;entryDy=0;" edge="1" parent="1" source="ULExNU8f8YkQf40PmKOp-12" target="ULExNU8f8YkQf40PmKOp-11">
          <mxGeometry relative="1" as="geometry" />
        </mxCell>
        <mxCell id="ULExNU8f8YkQf40PmKOp-23" style="edgeStyle=orthogonalEdgeStyle;rounded=0;orthogonalLoop=1;jettySize=auto;html=1;entryX=0.5;entryY=0;entryDx=0;entryDy=0;" edge="1" parent="1" source="ULExNU8f8YkQf40PmKOp-12" target="ULExNU8f8YkQf40PmKOp-13">
          <mxGeometry relative="1" as="geometry" />
        </mxCell>
        <mxCell id="ULExNU8f8YkQf40PmKOp-12" value="Routeur" style="rounded=0;whiteSpace=wrap;html=1;" vertex="1" parent="1">
          <mxGeometry x="830" y="90" width="80" height="50" as="geometry" />
        </mxCell>
        <mxCell id="ULExNU8f8YkQf40PmKOp-20" style="edgeStyle=orthogonalEdgeStyle;rounded=0;orthogonalLoop=1;jettySize=auto;html=1;" edge="1" parent="1" source="ULExNU8f8YkQf40PmKOp-13">
          <mxGeometry relative="1" as="geometry">
            <mxPoint x="720" y="210" as="targetPoint" />
            <Array as="points">
              <mxPoint x="720" y="240" />
            </Array>
          </mxGeometry>
        </mxCell>
        <mxCell id="ULExNU8f8YkQf40PmKOp-24" style="edgeStyle=orthogonalEdgeStyle;rounded=0;orthogonalLoop=1;jettySize=auto;html=1;entryX=0.5;entryY=1;entryDx=0;entryDy=0;" edge="1" parent="1" source="ULExNU8f8YkQf40PmKOp-13" target="ULExNU8f8YkQf40PmKOp-12">
          <mxGeometry relative="1" as="geometry" />
        </mxCell>
        <mxCell id="ULExNU8f8YkQf40PmKOp-13" value="Routeur" style="rounded=0;whiteSpace=wrap;html=1;" vertex="1" parent="1">
          <mxGeometry x="830" y="215" width="80" height="50" as="geometry" />
        </mxCell>
        <mxCell id="ULExNU8f8YkQf40PmKOp-18" style="edgeStyle=orthogonalEdgeStyle;rounded=0;orthogonalLoop=1;jettySize=auto;html=1;entryX=0;entryY=0.5;entryDx=0;entryDy=0;" edge="1" parent="1" source="ULExNU8f8YkQf40PmKOp-17" target="ULExNU8f8YkQf40PmKOp-11">
          <mxGeometry relative="1" as="geometry" />
        </mxCell>
        <mxCell id="ULExNU8f8YkQf40PmKOp-17" value="&lt;div align=&quot;center&quot;&gt;HTTPS&amp;nbsp;&amp;nbsp;&amp;nbsp;&amp;nbsp; &lt;br&gt;&lt;/div&gt;" style="strokeWidth=2;html=1;shape=mxgraph.flowchart.direct_data;whiteSpace=wrap;align=center;" vertex="1" parent="1">
          <mxGeometry x="520" y="155" width="100" height="60" as="geometry" />
        </mxCell>
      </root>
    </mxGraphModel>
  </diagram>
</mxfile>
